<svg width="100" height="100" viewBox="0 0 100 100" fill="none" xmlns="http://www.w3.org/2000/svg">
<rect width="100" height="100" rx="20" fill="#407BFF"/>
<path d="M20.8542 91.6013C19.7154 91.6013 18.7901 91.2418 18.0784 90.5228C17.3666 89.8039 17.0107 88.5294 17.0107 86.6993C17.0107 85.3267 17.4734 83.1045 18.3986 80.0326C19.3951 76.8954 20.7118 73.2352 22.3488 69.0522C24.057 64.8692 25.9431 60.4575 28.0072 55.8169C30.1424 51.1111 32.3488 46.4379 34.6264 41.7973C36.904 37.1568 39.146 32.8758 41.3524 28.9542C43.5588 24.9673 45.5873 21.6013 47.4378 18.8562C49.2883 16.1111 50.8542 14.3137 52.1353 13.464C53.63 12.4836 55.0179 11.9934 56.299 11.9934C57.0107 11.9934 57.7225 12.0588 58.4342 12.1895C59.146 12.3202 59.751 12.549 60.2492 12.8758C61.5303 13.5947 62.6335 15.196 63.5588 17.6797C64.5552 20.098 65.4093 23.0718 66.1211 26.6013C66.8328 30.0653 67.4022 33.7908 67.8292 37.7777C68.3275 41.6993 68.7545 45.5882 69.1104 49.4444C71.2456 49.183 73.025 48.9869 74.4485 48.8562C75.872 48.7254 76.904 48.6601 77.5446 48.6601C79.9645 48.6601 81.4947 48.9542 82.1353 49.5424C82.7759 50.1307 83.1317 50.8169 83.2029 51.6013C83.3453 52.7777 82.9894 53.8235 82.1353 54.7385C81.2812 55.6535 80.0712 56.3398 78.5054 56.7973C78.0072 56.928 76.9396 57.1568 75.3026 57.4836C73.7367 57.745 71.8506 58.0718 69.6442 58.464C69.7154 60.4248 69.751 62.2548 69.751 63.9542C69.8221 65.5882 69.8577 66.9934 69.8577 68.1699C69.8577 74.1176 69.4663 78.5947 68.6833 81.6013C67.9004 84.5424 66.9396 86.5359 65.8008 87.5816C64.662 88.6274 63.5588 89.1503 62.4912 89.1503C61.21 89.1503 60.3204 88.8235 59.8221 88.1699C59.3239 87.4509 59.0748 86.4379 59.0748 85.1307V78.1699C59.0748 75.7516 59.0392 73.0065 58.968 69.9346C58.968 66.7973 58.9325 63.4967 58.8613 60.0326C54.662 60.6862 50.3915 61.3071 46.0499 61.8954C41.7794 62.4836 38.0784 63.0065 34.9467 63.464C33.3808 67.1895 32.0285 70.5555 30.8897 73.562C29.751 76.5032 28.968 78.7581 28.541 80.3267C27.4734 83.5947 26.5125 86.0457 25.6584 87.6797C24.8043 89.2483 23.9858 90.2941 23.2029 90.8169C22.4912 91.3398 21.7083 91.6013 20.8542 91.6013ZM38.5766 54.7385C42.2776 53.9542 45.8008 53.2352 49.146 52.5816C52.5623 51.928 55.694 51.3725 58.541 50.915C58.3275 45.0326 57.936 39.4117 57.3666 34.0522C56.8684 28.6274 56.1211 24.3463 55.1246 21.2091C53.7723 23.366 52.1709 26.2418 50.3204 29.8365C48.4698 33.4313 46.5125 37.4182 44.4485 41.7973C42.4556 46.1111 40.4983 50.4248 38.5766 54.7385Z" fill="white"/>
</svg>
